<svg width="872" height="1689" viewBox="0 0 872 1689" fill="none" xmlns="http://www.w3.org/2000/svg">
<path opacity="0.07" d="M42.7271 1073.5L83.0012 1069.23L42.7271 1073.5ZM446.227 810.5L424.247 844.517L446.227 810.5ZM232.227 761L272.696 759.403L232.227 761ZM794.671 1613.16C445.733 1479.96 274.509 1395.57 186.473 1318.79C144.063 1281.8 122.027 1247.36 108.59 1210.11C94.5639 1171.23 89.2055 1127.73 83.0012 1069.23L2.45299 1077.77C8.49869 1134.77 14.5153 1188.02 32.3955 1237.59C50.8643 1288.79 81.2667 1334.51 133.231 1379.83C233.946 1467.68 419.221 1556.54 765.783 1688.84L794.671 1613.16ZM83.0012 1069.23C74.8545 992.417 99.6224 891.598 155.313 833.889C182.032 806.202 215.406 788.713 256.924 786.935C299.249 785.122 354.544 799.477 424.247 844.517L468.207 776.483C389.245 725.462 317.5 703.266 253.458 706.009C188.608 708.786 136.287 736.96 97.0274 777.642C20.7621 856.671 -7.55478 983.412 2.45299 1077.77L83.0012 1069.23ZM424.247 844.517C490.418 887.273 501.118 925.859 498.685 947.43C496.075 970.578 476.624 993.668 444.808 1003.02C414.556 1011.91 376.256 1006.73 343.239 974.664C309.492 941.892 277.332 876.862 272.696 759.403L191.759 762.597C196.872 892.138 232.9 980.421 286.809 1032.77C341.448 1085.83 410.273 1097.59 467.646 1080.73C523.455 1064.33 572.129 1018.98 579.175 956.507C586.399 892.454 548.286 828.227 468.207 776.483L424.247 844.517ZM272.696 759.403C260.266 444.522 316.116 287.762 412.034 203.25C510.376 116.602 661.173 95.0727 871.353 81.4148L866.101 0.585239C660.782 13.9273 480.788 34.7155 358.485 142.475C233.758 252.372 179.108 442.112 191.759 762.597L272.696 759.403Z" fill="white"/>
</svg>
